<mxfile host="app.diagrams.net" modified="2023-03-15T07:55:03.974Z" agent="5.0 (Macintosh; Intel Mac OS X 10_15_7) AppleWebKit/605.1.15 (KHTML, like Gecko) Version/16.1 Safari/605.1.15" etag="Fb0UeNxShLBkwac7u_Rc" version="21.0.6" type="github">
  <diagram id="kgpKYQtTHZ0yAKxKKP6v" name="Page-1">
    <mxGraphModel dx="511" dy="411" grid="1" gridSize="10" guides="1" tooltips="1" connect="1" arrows="1" fold="1" page="1" pageScale="1" pageWidth="850" pageHeight="1100" math="0" shadow="0">
      <root>
        <mxCell id="0" />
        <mxCell id="1" parent="0" />
        <mxCell id="LdSyxT93OLVpm3oe0EAX-14" value="" style="edgeStyle=orthogonalEdgeStyle;rounded=0;orthogonalLoop=1;jettySize=auto;html=1;" edge="1" parent="1" source="LdSyxT93OLVpm3oe0EAX-1" target="LdSyxT93OLVpm3oe0EAX-6">
          <mxGeometry relative="1" as="geometry" />
        </mxCell>
        <mxCell id="LdSyxT93OLVpm3oe0EAX-15" style="edgeStyle=orthogonalEdgeStyle;rounded=0;orthogonalLoop=1;jettySize=auto;html=1;entryX=0.5;entryY=0;entryDx=0;entryDy=0;" edge="1" parent="1" source="LdSyxT93OLVpm3oe0EAX-1" target="LdSyxT93OLVpm3oe0EAX-3">
          <mxGeometry relative="1" as="geometry">
            <Array as="points">
              <mxPoint x="240" y="370" />
              <mxPoint x="50" y="370" />
            </Array>
          </mxGeometry>
        </mxCell>
        <mxCell id="LdSyxT93OLVpm3oe0EAX-16" style="edgeStyle=orthogonalEdgeStyle;rounded=0;orthogonalLoop=1;jettySize=auto;html=1;entryX=0.5;entryY=0;entryDx=0;entryDy=0;" edge="1" parent="1" source="LdSyxT93OLVpm3oe0EAX-1" target="LdSyxT93OLVpm3oe0EAX-5">
          <mxGeometry relative="1" as="geometry">
            <Array as="points">
              <mxPoint x="240" y="370" />
              <mxPoint x="140" y="370" />
            </Array>
          </mxGeometry>
        </mxCell>
        <mxCell id="LdSyxT93OLVpm3oe0EAX-17" style="edgeStyle=orthogonalEdgeStyle;rounded=0;orthogonalLoop=1;jettySize=auto;html=1;entryX=0.5;entryY=0;entryDx=0;entryDy=0;" edge="1" parent="1" source="LdSyxT93OLVpm3oe0EAX-1" target="LdSyxT93OLVpm3oe0EAX-7">
          <mxGeometry relative="1" as="geometry">
            <Array as="points">
              <mxPoint x="240" y="370" />
              <mxPoint x="325" y="370" />
            </Array>
          </mxGeometry>
        </mxCell>
        <mxCell id="LdSyxT93OLVpm3oe0EAX-18" style="edgeStyle=orthogonalEdgeStyle;rounded=0;orthogonalLoop=1;jettySize=auto;html=1;entryX=0.5;entryY=0;entryDx=0;entryDy=0;" edge="1" parent="1" source="LdSyxT93OLVpm3oe0EAX-1" target="LdSyxT93OLVpm3oe0EAX-8">
          <mxGeometry relative="1" as="geometry">
            <Array as="points">
              <mxPoint x="240" y="370" />
              <mxPoint x="420" y="370" />
            </Array>
          </mxGeometry>
        </mxCell>
        <mxCell id="LdSyxT93OLVpm3oe0EAX-1" value="自动识别模块" style="rounded=0;whiteSpace=wrap;html=1;" vertex="1" parent="1">
          <mxGeometry x="130" y="300" width="220" height="50" as="geometry" />
        </mxCell>
        <mxCell id="LdSyxT93OLVpm3oe0EAX-3" value="用户上传动物图片" style="rounded=0;whiteSpace=wrap;html=1;" vertex="1" parent="1">
          <mxGeometry x="20" y="400" width="60" height="170" as="geometry" />
        </mxCell>
        <mxCell id="LdSyxT93OLVpm3oe0EAX-5" value="动物特征信息提取" style="rounded=0;whiteSpace=wrap;html=1;" vertex="1" parent="1">
          <mxGeometry x="110" y="400" width="60" height="170" as="geometry" />
        </mxCell>
        <mxCell id="LdSyxT93OLVpm3oe0EAX-6" value="匹配与检索" style="rounded=0;whiteSpace=wrap;html=1;" vertex="1" parent="1">
          <mxGeometry x="210" y="400" width="60" height="170" as="geometry" />
        </mxCell>
        <mxCell id="LdSyxT93OLVpm3oe0EAX-7" value="根据相似度返回动物信息" style="rounded=0;whiteSpace=wrap;html=1;" vertex="1" parent="1">
          <mxGeometry x="290" y="400" width="70" height="170" as="geometry" />
        </mxCell>
        <mxCell id="LdSyxT93OLVpm3oe0EAX-8" value="展示数据" style="rounded=0;whiteSpace=wrap;html=1;" vertex="1" parent="1">
          <mxGeometry x="390" y="400" width="60" height="170" as="geometry" />
        </mxCell>
      </root>
    </mxGraphModel>
  </diagram>
</mxfile>
